<?xml version="1.0" encoding="UTF-8" standalone="no"?>
<!-- Created with Inkscape (http://www.inkscape.org/) -->

<svg
   xmlns:dc="http://purl.org/dc/elements/1.1/"
   xmlns:cc="http://creativecommons.org/ns#"
   xmlns:rdf="http://www.w3.org/1999/02/22-rdf-syntax-ns#"
   xmlns:svg="http://www.w3.org/2000/svg"
   xmlns="http://www.w3.org/2000/svg"
   xmlns:sodipodi="http://sodipodi.sourceforge.net/DTD/sodipodi-0.dtd"
   xmlns:inkscape="http://www.inkscape.org/namespaces/inkscape"
   sodipodi:docname="Assets.svg"
   inkscape:version="0.91 r13725"
   version="1.1"
   id="svg2"
   viewBox="0 0 744.09448819 1052.3622047"
   height="297mm"
   width="210mm">
  <sodipodi:namedview
     inkscape:window-maximized="1"
     inkscape:window-y="32"
     inkscape:window-x="-8"
     inkscape:window-height="1137"
     inkscape:window-width="1920"
     showgrid="false"
     inkscape:current-layer="layer2"
     inkscape:document-units="px"
     inkscape:cy="1123.3056"
     inkscape:cx="89.551771"
     inkscape:zoom="0.54800776"
     inkscape:pageshadow="2"
     inkscape:pageopacity="0.0"
     borderopacity="1.0"
     bordercolor="#666666"
     pagecolor="#ffffff"
     id="base">
    <inkscape:grid
       type="xygrid"
       id="grid6386"
       spacingx="200"
       spacingy="200" />
  </sodipodi:namedview>
  <defs
     id="defs4" />
  <metadata
     id="metadata7">
    <rdf:RDF>
      <cc:Work
         rdf:about="">
        <dc:format>image/svg+xml</dc:format>
        <dc:type
           rdf:resource="http://purl.org/dc/dcmitype/StillImage" />
        <dc:title />
      </cc:Work>
    </rdf:RDF>
  </metadata>
  <g
     inkscape:label="Layer 1"
     inkscape:groupmode="layer"
     id="layer1"
     sodipodi:insensitive="true"
     style="display:none">
    <rect
       style="opacity:1;fill:#b22222;fill-opacity:1;fill-rule:evenodd;stroke:#ffffff;stroke-width:8.71608543;stroke-linecap:square;stroke-linejoin:miter;stroke-miterlimit:4;stroke-dasharray:none;stroke-opacity:1"
       id="rect3342"
       width="3562.8572"
       height="2151.4285"
       x="-724.28571"
       y="-613.35211"
       rx="170.85406"
       ry="144.25542" />
    <path
       style="opacity:1;fill:#000000;fill-opacity:1;fill-rule:evenodd;stroke:#ffffff;stroke-width:12.5;stroke-linecap:square;stroke-linejoin:miter;stroke-miterlimit:4;stroke-dasharray:none;stroke-opacity:1"
       d="m 363.2532,308.35845 -100,-50 -100,-50 62.71662,100 -62.71662,100 100,-50 100,-50 z"
       id="path3336"
       inkscape:connector-curvature="0"
       inkscape:export-xdpi="89.958023"
       inkscape:export-ydpi="89.958023" />
  </g>
  <g
     inkscape:groupmode="layer"
     id="layer2"
     inkscape:label="Layer 2">
    <g
       id="g6406"
       transform="translate(-21.074881,19.041889)"
       inkscape:export-xdpi="90"
       inkscape:export-ydpi="90">
      <rect
         y="-431.25644"
         x="451.85107"
         height="350"
         width="350"
         id="rect6388"
         style="opacity:1;fill:none;fill-opacity:0.4107143;fill-rule:evenodd;stroke:none;stroke-width:10;stroke-linecap:square;stroke-linejoin:miter;stroke-miterlimit:4;stroke-dasharray:none;stroke-opacity:1"
         inkscape:export-xdpi="90"
         inkscape:export-ydpi="90" />
      <path
         style="opacity:1;fill:#000000;fill-opacity:1;fill-rule:evenodd;stroke:#ffffff;stroke-width:9.99816036;stroke-linecap:square;stroke-linejoin:miter;stroke-miterlimit:4;stroke-dasharray:none;stroke-opacity:1"
         d="m 787.5518,-253.48576 c -9.69291,14.91218 -18.01583,33.34366 -9.67632,50.69791 -2.89287,17.79133 -27.29248,21.76428 -25.63933,41.95836 -5.93831,21.56918 -31.14167,21.98942 -43.63682,37.2693 -11.92282,13.34338 -30.50163,16.08651 -47.35733,18.32872 -16.90188,7.726548 -35.91702,2.50527 -53.96422,-4.66466 -20.19639,0.87875 -34.92126,-5.83125 -53.85131,-9.78331 -17.03174,-6.79507 -10.6854,-39.21803 -29.5914,-43.86327 -19.60341,-3.57262 -38.56818,-11.86229 -44.74958,-28.30438 -2.4056,-17.143 2.39508,-34.25351 -4.96926,-50.97694 -0.21607,-17.39129 4.23765,-21.17196 1.58228,-38.33911 -2.49416,-20.22558 15.28158,-34.56375 23.12511,-50.73333 1.6796,-21.75885 -2.57979,-50.54411 12.07246,-62.16808 15.73911,-10.11299 47.26489,-17.39594 67.77823,-18.89761 18.11868,-7.0449 35.864,3.20748 54.17209,1.62155 17.60341,3.37681 47.22608,19.54373 64.84458,22.87569 15.45913,7.97479 38.65922,8.56593 52.77952,19.89042 16.85581,11.04533 -23.2819,33.10692 -8.89217,46.67928 11.39146,14.4302 37.07736,22.31468 39.03693,39.87048 -0.24843,8.55774 1.04381,27.54806 2.66243,29.31241 -0.56907,-1.78388 -1.77721,-3.81102 -3.89727,-3.96399"
         id="path4894"
         inkscape:connector-curvature="0"
         sodipodi:nodetypes="ccccccccccccccccccccc" />
    </g>
    <g
       id="g6422"
       transform="translate(-73.422796,4.2578321)"
       inkscape:export-xdpi="90"
       inkscape:export-ydpi="90">
      <rect
         y="-66.472282"
         x="854.25494"
         height="350"
         width="350"
         id="rect6396"
         style="opacity:1;fill:none;fill-opacity:0.4107143;fill-rule:evenodd;stroke:none;stroke-width:10;stroke-linecap:square;stroke-linejoin:miter;stroke-miterlimit:4;stroke-dasharray:none;stroke-opacity:1"
         inkscape:export-xdpi="90"
         inkscape:export-ydpi="90" />
      <path
         style="opacity:1;fill:#000000;fill-opacity:1;fill-rule:evenodd;stroke:#ffffff;stroke-width:10.24371052;stroke-linecap:square;stroke-linejoin:miter;stroke-miterlimit:4;stroke-dasharray:none;stroke-opacity:1"
         d="m 1184.8703,88.661012 c 8.2999,14.623288 7.8921,25.420168 -3.1064,34.586568 -0.4388,16.53551 -14.9918,34.93304 -22.036,40.06937 1.3369,14.85027 -1.2035,6.08631 -9.321,20.44643 -13.2151,12.37891 6.2589,19.87374 -10.0011,26.33191 -1.1701,3.38733 -11.711,11.14092 -28.3806,19.81533 -12.7776,1.41223 -22.2367,6.82599 -30.9323,16.60016 -18.71,3.76937 -10.4959,15.87874 -30.0096,18.7414 -19.4873,2.98801 -28.3169,6.17316 -32.9211,1.87658 -10.2887,-5.43501 -21.35237,-6.62063 -30.69627,-3.48008 -1.90974,-5.32091 -6.94779,-5.38085 -25.13469,-7.87197 -18.1413,-6.26373 -5.46325,-4.42964 -15.2833,-15.94858 -3.86439,-1.28534 -22.65985,-9.95149 -22.07444,-21.15352 0.60878,-11.18582 -9.82816,-19.2375 -21.98503,-24.44581 -4.91479,-3.70392 -6.91803,-23.6302 -12.30081,-39.26547 -9.26697,-5.76625 -1.52568,-11.08664 -13.18631,-21.91462 7.113,-12.91457 12.81178,-22.37829 5.87436,-38.006828 -9.57872,-12.512333 -8.09006,-24.716816 -15.47999,-37.073688 11.6724,-10.955921 -3.44571,-22.630949 9.80901,-34.129066 -1.63969,-5.797796 7.70334,-14.4745206 21.97073,-21.3638148 13.68075,-11.9932204 -0.84444,8.0653558 15.4055,-1.0293448 12.84928,-12.0423944 37.43106,-8.7732176 36.24396,-13.4733684 9.56863,-11.542605 -1.26573,-14.093875 12.16551,-23.298564 16.9979,-1.207885 31.8962,5.621363 37.17767,-1.433289 8.0578,3.0483 32.3716,-3.845507 39.6424,-8.965215 11.1885,5.423374 6.399,-3.926588 25.9274,-1.148516 14.9528,-2.351434 6.9864,14.132256 25.3346,20.053178 6.9845,-0.959924 17.898,-26.252609 28.6011,-25.319425 4.3311,11.172634 -0.7834,6.531659 8.1433,19.611183 -2.056,5.728838 28.399,20.404566 29.4017,34.3532169 -3.7451,10.7365221 -1.5111,21.2754081 0.333,26.2254691 -5.7692,10.673975 20.9358,18.909774 21.4335,35.450719 -4.404,15.2257 10.1794,9.022758 6.9759,26.000265 -0.059,-5.436434 -9.9805,-0.825268 -0.3857,-0.24084"
         id="path4896"
         inkscape:connector-curvature="0"
         sodipodi:nodetypes="sssssssssssssssssssssssssssssssssc" />
    </g>
    <g
       id="g6434"
       transform="translate(-73.422796,-10.526179)"
       inkscape:export-xdpi="90"
       inkscape:export-ydpi="90">
      <rect
         style="opacity:1;fill:none;fill-opacity:0.4107143;fill-rule:evenodd;stroke:none;stroke-width:10;stroke-linecap:square;stroke-linejoin:miter;stroke-miterlimit:4;stroke-dasharray:none;stroke-opacity:1"
         id="rect6402"
         width="350"
         height="350"
         x="854.25494"
         y="298.31183"
         inkscape:export-xdpi="90"
         inkscape:export-ydpi="90" />
      <path
         style="opacity:1;fill:#000000;fill-opacity:1;fill-rule:evenodd;stroke:#ffffff;stroke-width:10;stroke-linecap:square;stroke-linejoin:miter;stroke-miterlimit:4;stroke-dasharray:none;stroke-opacity:1"
         d="m 1179.6271,470.23988 c 17.1933,18.54884 -19.1021,16.28673 -32.1735,31.46953 -7.2738,11.17931 23.1776,52.05692 5.7907,50.15317 -14.9329,16.71059 18.5241,44.8736 -9.0466,53.80902 -9.2155,9.52531 -40.9046,36.5907 -60.8532,20.03616 -28.552,3.0689 -57.2252,7.24284 -86.14045,3.70646 -14.58242,4.39868 -43.11945,-12.96347 -42.56118,-13.46261 -3.35451,-3.01167 -34.37903,-11.47311 -40.2314,-27.85202 1.90086,-19.13112 -47.75326,-18.61861 -17.8303,-38.97422 16.69555,-22.64865 -39.54266,-38.67286 -24.43046,-58.6423 25.33674,-13.2439 9.53349,-39.36515 -6.29784,-53.03121 -8.42691,-25.77933 7.78811,-68.16639 33.06086,-77.3104 11.73811,-4.7183 13.6921,-4.98065 6.07292,-14.16748 4.82244,-24.93245 46.38059,-2.37533 63.10609,-13.99526 18.09572,-16.39944 41.96576,-19.9838 59.65286,-2.91618 24.5573,3.85189 81.3865,25.80057 106.318,9.16127 17.212,14.1257 -15.9757,54.24576 12.6703,49.07737 13.7633,15.66425 2.4605,24.45584 35.7331,20.7992 13.3211,12.71654 -27.3081,36.11522 -1.5463,52.50814 1.8191,2.29652 23.1996,20.88632 13.6057,6.52258"
         id="path4898"
         inkscape:connector-curvature="0"
         sodipodi:nodetypes="cccccccccccccccccccc" />
    </g>
    <g
       id="g6410"
       transform="translate(-73.422796,19.041889)"
       inkscape:export-xdpi="90"
       inkscape:export-ydpi="90">
      <rect
         style="opacity:1;fill:none;fill-opacity:0.4107143;fill-rule:evenodd;stroke:none;stroke-width:10;stroke-linecap:square;stroke-linejoin:miter;stroke-miterlimit:4;stroke-dasharray:none;stroke-opacity:1"
         id="rect6390"
         width="350"
         height="350"
         x="854.25494"
         y="-431.25644"
         inkscape:export-xdpi="90"
         inkscape:export-ydpi="90" />
      <path
         style="opacity:1;fill:#000000;fill-opacity:1;fill-rule:evenodd;stroke:#ffffff;stroke-width:10.52216148;stroke-linecap:square;stroke-linejoin:miter;stroke-miterlimit:4;stroke-dasharray:none;stroke-opacity:1"
         d="m 1182.387,-239.62664 c -6.4596,16.29139 -15.6352,20.31577 -7.8301,32.44268 -10.4722,14.40702 -14.2049,19.57545 -8.8261,28.10057 5.8268,9.41133 17.0479,-8.56422 1.8837,2.47819 -10.0756,4.3274 -30.5279,25.25799 -31.8478,28.66395 -14.8945,11.40338 10.088,10.94832 -5.6092,21.01385 -4.5846,11.39907 -24.8083,14.68656 -38.638,24.08327 -11.4745,9.842356 -18.4773,2.84035 -29.6042,-0.34725 -2.7559,-1.32067 -10.2897,1.47179 -19.3517,6.913501 -13.3378,-5.368471 -21.2636,-1.361606 -39.4263,-7.093301 -0.8743,-4.21402 -3.7872,3.16284 -21.42291,-4.43336 -17.70878,-1.30643 -31.48079,-16.42414 -46.14218,-18.39027 -18.30983,-5.54786 -25.41136,-10.99895 -23.45426,-21.20259 -16.06974,-5.41343 0.33273,-18.35562 -0.0288,-22.96346 3.96402,-7.82126 -17.12,12.0543 -30.20632,-0.70496 4.9925,-8.02643 3.81534,-36.71803 -2.44098,-43.05963 7.5197,-9.87064 -20.11454,-25.98755 -11.04952,-35.71587 -9.95171,-12.60894 13.61727,-17.64188 12.3637,-34.23385 -0.51513,-6.03456 2.18213,-10.12006 -2.07594,-23.7016 13.49663,-12.17888 29.30625,-18.45106 26.10084,-30.29569 -4.21392,-10.12586 0.005,-30.50557 15.50136,-35.3706 16.61268,-6.13035 12.13687,-4.68019 29.45766,-13.46117 10.49895,-0.86934 27.12738,-10.23307 27.12995,-16.48108 18.9454,-2.69757 8.6198,-7.02245 28.8953,-9.41296 17.0352,-6.40796 12.7517,4.52752 22.8046,-0.98848 18.2087,-3.77695 36.6266,-3.30599 38.8005,2.26685 6.5261,-2.8037 10.8144,6.11793 13.275,6.577 -0.1937,5.90079 41.9757,9.56175 43.915,11.61705 12.8916,1.33616 19.9961,24.56438 25.6554,26.99667 3.476,13.05739 -7.0854,5.6184 4.4809,19.38894 15.5597,8.46466 20.6922,15.20636 16.8452,29.09684 -2.1564,6.08984 3.4689,36.50268 5.8713,42.34668 -5.7259,7.93297 13.7389,20.83984 5.4428,35.99622 0.019,5.53578 9.6174,-5.98353 9.7193,-0.44802"
         id="path4900"
         inkscape:connector-curvature="0"
         sodipodi:nodetypes="sssssssssssssssssssssssssssssssssc" />
    </g>
    <g
       id="g6426"
       transform="translate(-21.074881,4.2578321)"
       inkscape:export-xdpi="90"
       inkscape:export-ydpi="90">
      <rect
         style="opacity:1;fill:none;fill-opacity:0.4107143;fill-rule:evenodd;stroke:none;stroke-width:10;stroke-linecap:square;stroke-linejoin:miter;stroke-miterlimit:4;stroke-dasharray:none;stroke-opacity:1"
         id="rect6398"
         width="350"
         height="350"
         x="451.85107"
         y="-66.472282"
         inkscape:export-xdpi="90"
         inkscape:export-ydpi="90" />
      <path
         style="opacity:1;fill:#000000;fill-opacity:1;fill-rule:evenodd;stroke:#ffffff;stroke-width:10;stroke-linecap:square;stroke-linejoin:miter;stroke-miterlimit:4;stroke-dasharray:none;stroke-opacity:1"
         d="m 768.03585,226.58796 c -11.05729,20.19424 -19.75847,-16.72823 -30.85915,3.36753 -13.43538,11.95619 -30.22607,20.89073 -46.0508,29.83795 -18.0382,9.88397 -38.64574,7.8012 -57.32887,2.73689 -20.4426,-0.86684 -40.47538,-6.4552 -60.93468,-3.61056 -21.85919,-3.44266 -38.25272,-20.73601 -53.11111,-36.21745 -18.09223,-12.44752 19.78967,-21.49301 12.87434,-42.35921 3.43923,-19.76056 -67.67753,-45.87891 -60.35698,-65.39533 -1.5549,-19.73502 -11.57019,-39.815253 6.76711,-56.452021 16.7916,-22.297262 15.17737,-57.81716151 44.88173,-70.121286 18.5774,-5.176514 34.50208,-17.438356 53.24057,-22.549222 16.24982,-11.944556 35.90495,-6.389357 53.64637,-9.767715 17.28264,-8.554067 56.29781,-5.393981 71.77353,7.513879 16.93744,10.899188 33.83729,21.001685 51.70932,30.3044144 14.4839,12.1432697 -0.74266,29.4598636 10.41875,44.8329526 0.35937,21.441919 27.36955,31.665532 21.10879,54.340496 0,0 -3.70632,11.145562 -6.11567,22.140382 1.87163,31.73443 3.38554,93.75358 -11.66325,111.3983 z"
         id="path4908"
         inkscape:connector-curvature="0"
         sodipodi:nodetypes="cccccccccccccccccc" />
    </g>
    <g
       id="g6430"
       transform="translate(-21.074881,-10.526179)"
       inkscape:export-xdpi="90"
       inkscape:export-ydpi="90">
      <rect
         y="298.31183"
         x="451.85107"
         height="350"
         width="350"
         id="rect6400"
         style="opacity:1;fill:none;fill-opacity:0.4107143;fill-rule:evenodd;stroke:none;stroke-width:10;stroke-linecap:square;stroke-linejoin:miter;stroke-miterlimit:4;stroke-dasharray:none;stroke-opacity:1"
         inkscape:export-xdpi="90"
         inkscape:export-ydpi="90" />
      <path
         style="opacity:1;fill:#000000;fill-opacity:1;fill-rule:evenodd;stroke:#ffffff;stroke-width:10;stroke-linecap:square;stroke-linejoin:miter;stroke-miterlimit:4;stroke-dasharray:none;stroke-opacity:1"
         d="m 779.76141,470.58397 c -2.92742,18.91686 11.58771,38.29393 -3.51492,55.40993 -1.28703,24.36615 -29.46706,41.70404 -55.67662,45.7519 -10.35472,15.46842 3.42182,53.07273 -18.51865,56.67614 -27.92547,5.07715 -70.79331,20.45759 -98.5492,4.5998 -17.83466,-10.81664 -15.60315,-25.94961 -34.32318,-36.32289 -23.68593,-10.23014 -57.13777,-22.35927 -75.1426,-40.18863 -8.97143,-24.01043 3.10487,-32.98915 6.2408,-60.15707 -4.743,-23.15581 -38.6346,-62.74078 -18.26665,-80.7521 15.17584,-15.54421 16.06568,-45.9375 25.33846,-64.53887 13.56877,-15.56919 46.93656,31.62697 67.50675,29.99135 16.12304,-10.49308 32.06562,-21.66124 52.15518,-19.14866 20.47997,-7.06359 32.29016,-51.84534 48.57636,-37.30712 15.70723,10.55337 31.84484,19.80896 49.71865,26.65305 25.57415,5.81212 24.55227,39.67363 45.90374,52.9878 6.01004,19.6433 18.5224,40.04609 11.86208,61.13517 -5.05148,20.52469 -10.28032,1.87365 -0.31274,3.16349"
         id="path4910"
         inkscape:connector-curvature="0"
         sodipodi:nodetypes="ccccccccccccccccc" />
    </g>
    <g
       id="g6414"
       transform="translate(-95.280157,19.041889)"
       inkscape:export-xdpi="90"
       inkscape:export-ydpi="90">
      <rect
         y="-431.25644"
         x="1226.1123"
         height="350"
         width="350"
         id="rect6392"
         style="opacity:1;fill:none;fill-opacity:0.4107143;fill-rule:evenodd;stroke:none;stroke-width:10;stroke-linecap:square;stroke-linejoin:miter;stroke-miterlimit:4;stroke-dasharray:none;stroke-opacity:1"
         inkscape:export-xdpi="90"
         inkscape:export-ydpi="90" />
      <path
         style="opacity:1;fill:#000000;fill-opacity:1;fill-rule:evenodd;stroke:#ffffff;stroke-width:10.13188934;stroke-linecap:square;stroke-linejoin:miter;stroke-miterlimit:4;stroke-dasharray:none;stroke-opacity:1"
         d="m 1547.8176,-194.76729 c -13.7322,29.65458 -33.8527,39.26386 -58.4945,60.20225 -23.3645,8.41218 -49.1638,36.232317 -75.0589,34.32477 -19.9718,2.812799 -39.9051,5.299745 -59.7685,0.300146 -21.9092,-6.854866 -0.117,-49.242586 -14.0257,-68.252356 -8.6174,-18.99753 -64.713,18.25441 -70.701,-2.96864 -12.3923,-20.72664 -26.2029,-52.89749 -31.5415,-75.37663 -6.0462,-28.75893 2.9271,-54.83683 18.1039,-78.23548 4.5934,-22.1055 54.4509,-45.18824 72.787,-57.91788 24.2349,-8.30831 7.3371,-28.5478 34.5717,-27.4673 20.1763,-4.34174 33.0006,23.78006 52.7916,33.31465 18.7012,8.44101 38.6193,13.52619 58.3786,18.82167 19.0423,14.24858 45.2397,-1.70213 58.8026,18.00708 28.4445,17.79569 20.1398,53.6 31.3363,80.48799 -0.5635,1.59431 -0.5136,3.24263 -3.1068,16.07221 3.2731,31.53388 -1.7599,31.6123 -14.0748,48.68752 z"
         id="path4912"
         inkscape:connector-curvature="0"
         sodipodi:nodetypes="cccccccccccccccc" />
    </g>
    <g
       id="g6418"
       transform="translate(-95.280157,4.2578321)"
       inkscape:export-xdpi="90"
       inkscape:export-ydpi="90">
      <rect
         style="opacity:1;fill:none;fill-opacity:0.4107143;fill-rule:evenodd;stroke:none;stroke-width:10;stroke-linecap:square;stroke-linejoin:miter;stroke-miterlimit:4;stroke-dasharray:none;stroke-opacity:1"
         id="rect6394"
         width="350"
         height="350"
         x="1226.1123"
         y="-66.472282"
         inkscape:export-xdpi="90"
         inkscape:export-ydpi="90" />
      <path
         sodipodi:nodetypes="sssssssssssssssssssssssssssssssssc"
         inkscape:connector-curvature="0"
         id="path4914"
         d="m 1559.411,104.46495 c -0.1873,8.04747 -0.5419,22.94936 -5.5116,32.38479 -3.1823,7.60286 -5.0371,28.63747 -7.1486,35.8886 -3.036,6.72908 -9.3298,21.9427 -15.4452,27.46505 -5.2695,11.57134 -16.78,17.44478 -22.3631,22.13606 -10.1526,6.5952 -11.9664,15.55871 -23.2239,20.15012 -11.4406,6.35215 -17.6083,11.22779 -27.6494,12.285 -12.1035,5.66127 -21.7504,10.88527 -29.7028,11.18082 -12.4365,-0.0836 -21.0321,7.15392 -31.5219,4.14137 -7.9727,0.22218 -26.1177,9.72086 -28.5252,-2.59895 -5.073,-25.9592 -25.6823,-11.27022 -32.1988,-14.99611 -6.3594,-3.63606 -20.6009,-1.04034 -26.9687,-9.0148 -11.481,-6.06734 -13.0012,-15.3858 -21.5587,-25.38852 -4.4708,-5.95803 4.2364,-15.3434 1.2566,-25.18548 -8.2521,-6.87657 -33.8786,-10.53007 -39.4797,-22.75408 -6.7431,-10.96241 -1.8977,-16.00591 -3.4115,-29.46177 -2.6909,-13.4632 53.0039,-7.28348 51.0339,-20.698 1.0672,-13.95448 -58.2719,-29.187308 -55.7251,-42.674891 5.1329,-10.179378 9.9084,-28.286304 12.0727,-35.494797 2.0911,-7.268184 3.1117,-12.339916 11.5062,-22.322264 2.8416,-9.48643 5.616,-29.799149 10.8071,-34.788784 8.6795,-9.937364 31.9864,-4.865131 37.4302,-10.648586 5.6606,-4.641648 34.4847,4.754807 43.2289,3.639756 8.2312,-6.828965 4.2608,-23.229026 13.6722,-28.26963 12.6722,-0.167216 18.4641,-2.700842 27.9614,-0.044 8.4547,1.666478 9.3916,10.132661 21.634,14.667743 7.3487,2.400082 32.614,-6.864067 44.4754,-4.735577 11.3408,6.508468 -1.0157,66.932009 5.794,70.154845 5.7837,7.183498 34.6129,-42.381016 38.7997,-35.3572008 10.0875,6.35267862 19.7169,10.8513483 22.5307,20.2453848 7.0634,11.2889 9.2755,25.73284 15.5114,33.259375 3.8236,12.662537 0.5923,17.708598 5.3644,26.700805 -0.5968,11.806256 11.8879,19.917267 9.175,32.365831 3.0165,-0.23431 -5.6145,0.55076 -4.3348,3.31872"
         style="opacity:1;fill:#000000;fill-opacity:1;fill-rule:evenodd;stroke:#ffffff;stroke-width:10.13335991;stroke-linecap:square;stroke-linejoin:miter;stroke-miterlimit:4;stroke-dasharray:none;stroke-opacity:1" />
    </g>
    <g
       id="g6438"
       transform="translate(-95.280157,-10.526179)"
       inkscape:export-xdpi="90"
       inkscape:export-ydpi="90">
      <rect
         y="298.31183"
         x="1226.1123"
         height="350"
         width="350"
         id="rect6404"
         style="opacity:1;fill:none;fill-opacity:0.4107143;fill-rule:evenodd;stroke:none;stroke-width:10;stroke-linecap:square;stroke-linejoin:miter;stroke-miterlimit:4;stroke-dasharray:none;stroke-opacity:1"
         inkscape:export-xdpi="90"
         inkscape:export-ydpi="90" />
      <path
         style="opacity:1;fill:#000000;fill-opacity:1;fill-rule:evenodd;stroke:#ffffff;stroke-width:9.90327263;stroke-linecap:square;stroke-linejoin:miter;stroke-miterlimit:4;stroke-dasharray:none;stroke-opacity:1"
         d="m 1560.0942,471.94561 c -1.72,8.27731 -5.9967,19.05134 -5.3369,30.27687 -1.4162,12.94244 -5.357,22.67968 -7.6886,29.49161 -3.1022,12.07032 -10.1779,19.25607 -18.8497,27.59337 -8.0789,9.99478 -5.8209,15.0599 -15.85,21.26599 -4.8204,5.14033 -14.0536,14.13598 -25.3957,19.13443 -10.5632,7.60092 -18.1296,12.52803 -27.137,19.35622 -9.5526,0.97684 -15.6095,5.0254 -27.6132,9.49309 -10.8867,4.94298 -21.5338,-0.79314 -35.1629,0.42401 -10.2137,-2.86475 -0.9802,-25.48707 -13.8342,-29.05431 -12.6359,-0.24566 -37.9391,25.44691 -45.1289,19.58707 -12.1384,-5.20871 -17.5953,-17.18918 -27.0864,-20.01355 -9.559,-2.85138 -17.027,-3.59086 -22.6332,-13.12271 -9.4061,-8.934 -13.7087,-16.19194 -16.4101,-24.8284 -7.1977,-10.77067 -9.7554,-20.30457 -14.434,-26.70106 -4.8451,-6.43974 -4.7599,-21.75839 -9.8529,-31.59947 -1.8176,-13.0072 -0.45,-19.3666 -2.7234,-28.13479 -2.3421,-8.84936 11.2762,-10.77696 14.0969,-23.71199 2.868,-7.23335 8.7057,-17.72671 12.296,-24.07233 1.0011,-9.05786 4.6804,-16.38323 12.9725,-26.05532 6.9665,-5.58138 -6.7047,-34.32917 2.6652,-39.36336 4.1712,-7.41606 11.0184,-11.84885 22.3523,-18.01812 11.2951,-6.3286 20.9132,-6.64903 32.2563,-12.84286 6.9777,-2.24049 19.1116,-7.31124 28.6046,-6.53332 8.8354,-4.64312 19.2619,-5.06201 32.1504,-7.26311 13.5036,-1.45798 19.2338,-2.52465 30.5807,2.28609 7.2771,2.13918 8.0196,29.47695 18.1239,36.26393 9.6586,6.85174 21.4351,10.00613 27.5024,13.71792 10.6831,7.47092 13.8861,13.18512 22.285,22.8607 10.078,6.40179 30.1606,-12.19147 33.1014,-5.16887 7.0002,5.59745 1.9818,15.82897 8.9743,24.99657 6.7438,10.43744 13.1792,19.54983 14.1551,32.35488 4.7125,8.62703 0.5189,19.23293 -1.8859,28.16182 1.8044,2.3506 1.2079,4.28411 -0.2391,1.70674"
         id="path4916"
         inkscape:connector-curvature="0"
         sodipodi:nodetypes="sssssssssssssssssssssssssssssssssc" />
    </g>
    <g
       inkscape:export-ydpi="90"
       inkscape:export-xdpi="90"
       transform="matrix(0.49997332,0,0,0.49997332,-656.439,32.814028)"
       id="g3372"
       style="stroke-width:10.00053363;stroke-miterlimit:4;stroke-dasharray:none">
      <rect
         inkscape:export-ydpi="90"
         inkscape:export-xdpi="90"
         style="opacity:1;fill:none;fill-opacity:0.4107143;fill-rule:evenodd;stroke:none;stroke-width:10.00053363;stroke-linecap:square;stroke-linejoin:miter;stroke-miterlimit:4;stroke-dasharray:none;stroke-opacity:1"
         id="rect3374"
         width="350"
         height="350"
         x="451.85107"
         y="-431.25644" />
      <path
         sodipodi:nodetypes="ccccccccccccccccccccc"
         inkscape:connector-curvature="0"
         id="path3376"
         d="m 787.5518,-253.48576 c -9.69291,14.91218 -18.01583,33.34366 -9.67632,50.69791 -2.89287,17.79133 -27.29248,21.76428 -25.63933,41.95836 -5.93831,21.56918 -31.14167,21.98942 -43.63682,37.2693 -11.92282,13.34338 -30.50163,16.08651 -47.35733,18.32872 -16.90188,7.726548 -35.91702,2.50527 -53.96422,-4.66466 -20.19639,0.87875 -34.92126,-5.83125 -53.85131,-9.78331 -17.03174,-6.79507 -10.6854,-39.21803 -29.5914,-43.86327 -19.60341,-3.57262 -38.56818,-11.86229 -44.74958,-28.30438 -2.4056,-17.143 2.39508,-34.25351 -4.96926,-50.97694 -0.21607,-17.39129 4.23765,-21.17196 1.58228,-38.33911 -2.49416,-20.22558 15.28158,-34.56375 23.12511,-50.73333 1.6796,-21.75885 -2.57979,-50.54411 12.07246,-62.16808 15.73911,-10.11299 47.26489,-17.39594 67.77823,-18.89761 18.11868,-7.0449 35.864,3.20748 54.17209,1.62155 17.60341,3.37681 47.22608,19.54373 64.84458,22.87569 15.45913,7.97479 38.65922,8.56593 52.77952,19.89042 16.85581,11.04533 -23.2819,33.10692 -8.89217,46.67928 11.39146,14.4302 37.07736,22.31468 39.03693,39.87048 -0.24843,8.55774 1.04381,27.54806 2.66243,29.31241 -0.56907,-1.78388 -1.77721,-3.81102 -3.89727,-3.96399"
         style="opacity:1;fill:#000000;fill-opacity:1;fill-rule:evenodd;stroke:#ffffff;stroke-width:20.00106726;stroke-linecap:square;stroke-linejoin:miter;stroke-miterlimit:4;stroke-dasharray:none;stroke-opacity:1" />
    </g>
    <g
       inkscape:export-ydpi="90"
       inkscape:export-xdpi="90"
       transform="matrix(0.49997332,0,0,0.49997332,-682.6116,25.422388)"
       id="g3378"
       style="stroke-width:10.00053363;stroke-miterlimit:4;stroke-dasharray:none">
      <rect
         inkscape:export-ydpi="90"
         inkscape:export-xdpi="90"
         style="opacity:1;fill:none;fill-opacity:0.4107143;fill-rule:evenodd;stroke:none;stroke-width:10.00053363;stroke-linecap:square;stroke-linejoin:miter;stroke-miterlimit:4;stroke-dasharray:none;stroke-opacity:1"
         id="rect3380"
         width="350"
         height="350"
         x="854.25494"
         y="-66.472282" />
      <path
         sodipodi:nodetypes="sssssssssssssssssssssssssssssssssc"
         inkscape:connector-curvature="0"
         id="path3382"
         d="m 1184.8703,88.661012 c 8.2999,14.623288 7.8921,25.420168 -3.1064,34.586568 -0.4388,16.53551 -14.9918,34.93304 -22.036,40.06937 1.3369,14.85027 -1.2035,6.08631 -9.321,20.44643 -13.2151,12.37891 6.2589,19.87374 -10.0011,26.33191 -1.1701,3.38733 -11.711,11.14092 -28.3806,19.81533 -12.7776,1.41223 -22.2367,6.82599 -30.9323,16.60016 -18.71,3.76937 -10.4959,15.87874 -30.0096,18.7414 -19.4873,2.98801 -28.3169,6.17316 -32.9211,1.87658 -10.2887,-5.43501 -21.35237,-6.62063 -30.69627,-3.48008 -1.90974,-5.32091 -6.94779,-5.38085 -25.13469,-7.87197 -18.1413,-6.26373 -5.46325,-4.42964 -15.2833,-15.94858 -3.86439,-1.28534 -22.65985,-9.95149 -22.07444,-21.15352 0.60878,-11.18582 -9.82816,-19.2375 -21.98503,-24.44581 -4.91479,-3.70392 -6.91803,-23.6302 -12.30081,-39.26547 -9.26697,-5.76625 -1.52568,-11.08664 -13.18631,-21.91462 7.113,-12.91457 12.81178,-22.37829 5.87436,-38.006828 -9.57872,-12.512333 -8.09006,-24.716816 -15.47999,-37.073688 11.6724,-10.955921 -3.44571,-22.630949 9.80901,-34.129066 -1.63969,-5.797796 7.70334,-14.4745206 21.97073,-21.3638148 13.68075,-11.9932204 -0.84444,8.0653558 15.4055,-1.0293448 12.84928,-12.0423944 37.43106,-8.7732176 36.24396,-13.4733684 9.56863,-11.542605 -1.26573,-14.093875 12.16551,-23.298564 16.9979,-1.207885 31.8962,5.621363 37.17767,-1.433289 8.0578,3.0483 32.3716,-3.845507 39.6424,-8.965215 11.1885,5.423374 6.399,-3.926588 25.9274,-1.148516 14.9528,-2.351434 6.9864,14.132256 25.3346,20.053178 6.9845,-0.959924 17.898,-26.252609 28.6011,-25.319425 4.3311,11.172634 -0.7834,6.531659 8.1433,19.611183 -2.056,5.728838 28.399,20.404566 29.4017,34.3532169 -3.7451,10.7365221 -1.5111,21.2754081 0.333,26.2254691 -5.7692,10.673975 20.9358,18.909774 21.4335,35.450719 -4.404,15.2257 10.1794,9.022758 6.9759,26.000265 -0.059,-5.436434 -9.9805,-0.825268 -0.3857,-0.24084"
         style="opacity:1;fill:#000000;fill-opacity:1;fill-rule:evenodd;stroke:#ffffff;stroke-width:20.00106726;stroke-linecap:square;stroke-linejoin:miter;stroke-miterlimit:4;stroke-dasharray:none;stroke-opacity:1" />
    </g>
    <g
       inkscape:export-ydpi="90"
       inkscape:export-xdpi="90"
       transform="matrix(0.49997332,0,0,0.49997332,-682.6116,18.030778)"
       id="g3384"
       style="stroke-width:10.00053363;stroke-miterlimit:4;stroke-dasharray:none">
      <rect
         inkscape:export-ydpi="90"
         inkscape:export-xdpi="90"
         y="298.31183"
         x="854.25494"
         height="350"
         width="350"
         id="rect3386"
         style="opacity:1;fill:none;fill-opacity:0.4107143;fill-rule:evenodd;stroke:none;stroke-width:10.00053363;stroke-linecap:square;stroke-linejoin:miter;stroke-miterlimit:4;stroke-dasharray:none;stroke-opacity:1" />
      <path
         sodipodi:nodetypes="cccccccccccccccccccc"
         inkscape:connector-curvature="0"
         id="path3388"
         d="m 1179.6271,470.23988 c 17.1933,18.54884 -19.1021,16.28673 -32.1735,31.46953 -7.2738,11.17931 23.1776,52.05692 5.7907,50.15317 -14.9329,16.71059 18.5241,44.8736 -9.0466,53.80902 -9.2155,9.52531 -40.9046,36.5907 -60.8532,20.03616 -28.552,3.0689 -57.2252,7.24284 -86.14045,3.70646 -14.58242,4.39868 -43.11945,-12.96347 -42.56118,-13.46261 -3.35451,-3.01167 -34.37903,-11.47311 -40.2314,-27.85202 1.90086,-19.13112 -47.75326,-18.61861 -17.8303,-38.97422 16.69555,-22.64865 -39.54266,-38.67286 -24.43046,-58.6423 25.33674,-13.2439 9.53349,-39.36515 -6.29784,-53.03121 -8.42691,-25.77933 7.78811,-68.16639 33.06086,-77.3104 11.73811,-4.7183 13.6921,-4.98065 6.07292,-14.16748 4.82244,-24.93245 46.38059,-2.37533 63.10609,-13.99526 18.09572,-16.39944 41.96576,-19.9838 59.65286,-2.91618 24.5573,3.85189 81.3865,25.80057 106.318,9.16127 17.212,14.1257 -15.9757,54.24576 12.6703,49.07737 13.7633,15.66425 2.4605,24.45584 35.7331,20.7992 13.3211,12.71654 -27.3081,36.11522 -1.5463,52.50814 1.8191,2.29652 23.1996,20.88632 13.6057,6.52258"
         style="opacity:1;fill:#000000;fill-opacity:1;fill-rule:evenodd;stroke:#ffffff;stroke-width:20.00106726;stroke-linecap:square;stroke-linejoin:miter;stroke-miterlimit:4;stroke-dasharray:none;stroke-opacity:1" />
    </g>
    <g
       inkscape:export-ydpi="90"
       inkscape:export-xdpi="90"
       transform="matrix(0.49997332,0,0,0.49997332,-682.6116,32.814028)"
       id="g3390"
       style="stroke-width:10.00053363;stroke-miterlimit:4;stroke-dasharray:none">
      <rect
         inkscape:export-ydpi="90"
         inkscape:export-xdpi="90"
         y="-431.25644"
         x="854.25494"
         height="350"
         width="350"
         id="rect3392"
         style="opacity:1;fill:none;fill-opacity:0.4107143;fill-rule:evenodd;stroke:none;stroke-width:10.00053363;stroke-linecap:square;stroke-linejoin:miter;stroke-miterlimit:4;stroke-dasharray:none;stroke-opacity:1" />
      <path
         sodipodi:nodetypes="sssssssssssssssssssssssssssssssssc"
         inkscape:connector-curvature="0"
         id="path3394"
         d="m 1182.387,-239.62664 c -6.4596,16.29139 -15.6352,20.31577 -7.8301,32.44268 -10.4722,14.40702 -14.2049,19.57545 -8.8261,28.10057 5.8268,9.41133 17.0479,-8.56422 1.8837,2.47819 -10.0756,4.3274 -30.5279,25.25799 -31.8478,28.66395 -14.8945,11.40338 10.088,10.94832 -5.6092,21.01385 -4.5846,11.39907 -24.8083,14.68656 -38.638,24.08327 -11.4745,9.842356 -18.4773,2.84035 -29.6042,-0.34725 -2.7559,-1.32067 -10.2897,1.47179 -19.3517,6.913501 -13.3378,-5.368471 -21.2636,-1.361606 -39.4263,-7.093301 -0.8743,-4.21402 -3.7872,3.16284 -21.42291,-4.43336 -17.70878,-1.30643 -31.48079,-16.42414 -46.14218,-18.39027 -18.30983,-5.54786 -25.41136,-10.99895 -23.45426,-21.20259 -16.06974,-5.41343 0.33273,-18.35562 -0.0288,-22.96346 3.96402,-7.82126 -17.12,12.0543 -30.20632,-0.70496 4.9925,-8.02643 3.81534,-36.71803 -2.44098,-43.05963 7.5197,-9.87064 -20.11454,-25.98755 -11.04952,-35.71587 -9.95171,-12.60894 13.61727,-17.64188 12.3637,-34.23385 -0.51513,-6.03456 2.18213,-10.12006 -2.07594,-23.7016 13.49663,-12.17888 29.30625,-18.45106 26.10084,-30.29569 -4.21392,-10.12586 0.005,-30.50557 15.50136,-35.3706 16.61268,-6.13035 12.13687,-4.68019 29.45766,-13.46117 10.49895,-0.86934 27.12738,-10.23307 27.12995,-16.48108 18.9454,-2.69757 8.6198,-7.02245 28.8953,-9.41296 17.0352,-6.40796 12.7517,4.52752 22.8046,-0.98848 18.2087,-3.77695 36.6266,-3.30599 38.8005,2.26685 6.5261,-2.8037 10.8144,6.11793 13.275,6.577 -0.1937,5.90079 41.9757,9.56175 43.915,11.61705 12.8916,1.33616 19.9961,24.56438 25.6554,26.99667 3.476,13.05739 -7.0854,5.6184 4.4809,19.38894 15.5597,8.46466 20.6922,15.20636 16.8452,29.09684 -2.1564,6.08984 3.4689,36.50268 5.8713,42.34668 -5.7259,7.93297 13.7389,20.83984 5.4428,35.99622 0.019,5.53578 9.6174,-5.98353 9.7193,-0.44802"
         style="opacity:1;fill:#000000;fill-opacity:1;fill-rule:evenodd;stroke:#ffffff;stroke-width:20.00106726;stroke-linecap:square;stroke-linejoin:miter;stroke-miterlimit:4;stroke-dasharray:none;stroke-opacity:1" />
    </g>
    <g
       inkscape:export-ydpi="90"
       inkscape:export-xdpi="90"
       transform="matrix(0.49997332,0,0,0.49997332,-656.439,25.422388)"
       id="g3396"
       style="stroke-width:10.00053363;stroke-miterlimit:4;stroke-dasharray:none">
      <rect
         inkscape:export-ydpi="90"
         inkscape:export-xdpi="90"
         y="-66.472282"
         x="451.85107"
         height="350"
         width="350"
         id="rect3398"
         style="opacity:1;fill:none;fill-opacity:0.4107143;fill-rule:evenodd;stroke:none;stroke-width:10.00053363;stroke-linecap:square;stroke-linejoin:miter;stroke-miterlimit:4;stroke-dasharray:none;stroke-opacity:1" />
      <path
         sodipodi:nodetypes="cccccccccccccccccc"
         inkscape:connector-curvature="0"
         id="path3400"
         d="m 768.03585,226.58796 c -11.05729,20.19424 -19.75847,-16.72823 -30.85915,3.36753 -13.43538,11.95619 -30.22607,20.89073 -46.0508,29.83795 -18.0382,9.88397 -38.64574,7.8012 -57.32887,2.73689 -20.4426,-0.86684 -40.47538,-6.4552 -60.93468,-3.61056 -21.85919,-3.44266 -38.25272,-20.73601 -53.11111,-36.21745 -18.09223,-12.44752 19.78967,-21.49301 12.87434,-42.35921 3.43923,-19.76056 -67.67753,-45.87891 -60.35698,-65.39533 -1.5549,-19.73502 -11.57019,-39.815253 6.76711,-56.452021 16.7916,-22.297262 15.17737,-57.81716151 44.88173,-70.121286 18.5774,-5.176514 34.50208,-17.438356 53.24057,-22.549222 16.24982,-11.944556 35.90495,-6.389357 53.64637,-9.767715 17.28264,-8.554067 56.29781,-5.393981 71.77353,7.513879 16.93744,10.899188 33.83729,21.001685 51.70932,30.3044144 14.4839,12.1432697 -0.74266,29.4598636 10.41875,44.8329526 0.35937,21.441919 27.36955,31.665532 21.10879,54.340496 0,0 -3.70632,11.145562 -6.11567,22.140382 1.87163,31.73443 3.38554,93.75358 -11.66325,111.3983 z"
         style="opacity:1;fill:#000000;fill-opacity:1;fill-rule:evenodd;stroke:#ffffff;stroke-width:20.00106726;stroke-linecap:square;stroke-linejoin:miter;stroke-miterlimit:4;stroke-dasharray:none;stroke-opacity:1" />
    </g>
    <g
       inkscape:export-ydpi="90"
       inkscape:export-xdpi="90"
       transform="matrix(0.49997332,0,0,0.49997332,-656.439,18.030778)"
       id="g3402"
       style="stroke-width:10.00053363;stroke-miterlimit:4;stroke-dasharray:none">
      <rect
         inkscape:export-ydpi="90"
         inkscape:export-xdpi="90"
         style="opacity:1;fill:none;fill-opacity:0.4107143;fill-rule:evenodd;stroke:none;stroke-width:10.00053363;stroke-linecap:square;stroke-linejoin:miter;stroke-miterlimit:4;stroke-dasharray:none;stroke-opacity:1"
         id="rect3404"
         width="350"
         height="350"
         x="451.85107"
         y="298.31183" />
      <path
         sodipodi:nodetypes="ccccccccccccccccc"
         inkscape:connector-curvature="0"
         id="path3406"
         d="m 779.76141,470.58397 c -2.92742,18.91686 11.58771,38.29393 -3.51492,55.40993 -1.28703,24.36615 -29.46706,41.70404 -55.67662,45.7519 -10.35472,15.46842 3.42182,53.07273 -18.51865,56.67614 -27.92547,5.07715 -70.79331,20.45759 -98.5492,4.5998 -17.83466,-10.81664 -15.60315,-25.94961 -34.32318,-36.32289 -23.68593,-10.23014 -57.13777,-22.35927 -75.1426,-40.18863 -8.97143,-24.01043 3.10487,-32.98915 6.2408,-60.15707 -4.743,-23.15581 -38.6346,-62.74078 -18.26665,-80.7521 15.17584,-15.54421 16.06568,-45.9375 25.33846,-64.53887 13.56877,-15.56919 46.93656,31.62697 67.50675,29.99135 16.12304,-10.49308 32.06562,-21.66124 52.15518,-19.14866 20.47997,-7.06359 32.29016,-51.84534 48.57636,-37.30712 15.70723,10.55337 31.84484,19.80896 49.71865,26.65305 25.57415,5.81212 24.55227,39.67363 45.90374,52.9878 6.01004,19.6433 18.5224,40.04609 11.86208,61.13517 -5.05148,20.52469 -10.28032,1.87365 -0.31274,3.16349"
         style="opacity:1;fill:#000000;fill-opacity:1;fill-rule:evenodd;stroke:#ffffff;stroke-width:20.00106726;stroke-linecap:square;stroke-linejoin:miter;stroke-miterlimit:4;stroke-dasharray:none;stroke-opacity:1" />
    </g>
    <g
       inkscape:export-ydpi="90"
       inkscape:export-xdpi="90"
       transform="matrix(0.49997332,0,0,0.49997332,-693.5396,32.814028)"
       id="g3408"
       style="stroke-width:10.00053363;stroke-miterlimit:4;stroke-dasharray:none">
      <rect
         inkscape:export-ydpi="90"
         inkscape:export-xdpi="90"
         style="opacity:1;fill:none;fill-opacity:0.4107143;fill-rule:evenodd;stroke:none;stroke-width:10.00053363;stroke-linecap:square;stroke-linejoin:miter;stroke-miterlimit:4;stroke-dasharray:none;stroke-opacity:1"
         id="rect3410"
         width="350"
         height="350"
         x="1226.1123"
         y="-431.25644" />
      <path
         sodipodi:nodetypes="cccccccccccccccc"
         inkscape:connector-curvature="0"
         id="path3412"
         d="m 1547.8176,-194.76729 c -13.7322,29.65458 -33.8527,39.26386 -58.4945,60.20225 -23.3645,8.41218 -49.1638,36.232317 -75.0589,34.32477 -19.9718,2.812799 -39.9051,5.299745 -59.7685,0.300146 -21.9092,-6.854866 -0.117,-49.242586 -14.0257,-68.252356 -8.6174,-18.99753 -64.713,18.25441 -70.701,-2.96864 -12.3923,-20.72664 -26.2029,-52.89749 -31.5415,-75.37663 -6.0462,-28.75893 2.9271,-54.83683 18.1039,-78.23548 4.5934,-22.1055 54.4509,-45.18824 72.787,-57.91788 24.2349,-8.30831 7.3371,-28.5478 34.5717,-27.4673 20.1763,-4.34174 33.0006,23.78006 52.7916,33.31465 18.7012,8.44101 38.6193,13.52619 58.3786,18.82167 19.0423,14.24858 45.2397,-1.70213 58.8026,18.00708 28.4445,17.79569 20.1398,53.6 31.3363,80.48799 -0.5635,1.59431 -0.5136,3.24263 -3.1068,16.07221 3.2731,31.53388 -1.7599,31.6123 -14.0748,48.68752 z"
         style="opacity:1;fill:#000000;fill-opacity:1;fill-rule:evenodd;stroke:#ffffff;stroke-width:20.00106726;stroke-linecap:square;stroke-linejoin:miter;stroke-miterlimit:4;stroke-dasharray:none;stroke-opacity:1" />
    </g>
    <g
       inkscape:export-ydpi="90"
       inkscape:export-xdpi="90"
       transform="matrix(0.49997332,0,0,0.49997332,-693.5396,25.422388)"
       id="g3414"
       style="stroke-width:10.00053363;stroke-miterlimit:4;stroke-dasharray:none">
      <rect
         inkscape:export-ydpi="90"
         inkscape:export-xdpi="90"
         y="-66.472282"
         x="1226.1123"
         height="350"
         width="350"
         id="rect3416"
         style="opacity:1;fill:none;fill-opacity:0.4107143;fill-rule:evenodd;stroke:none;stroke-width:10.00053363;stroke-linecap:square;stroke-linejoin:miter;stroke-miterlimit:4;stroke-dasharray:none;stroke-opacity:1" />
      <path
         style="opacity:1;fill:#000000;fill-opacity:1;fill-rule:evenodd;stroke:#ffffff;stroke-width:20.00106726;stroke-linecap:square;stroke-linejoin:miter;stroke-miterlimit:4;stroke-dasharray:none;stroke-opacity:1"
         d="m 1559.411,104.46495 c -0.1873,8.04747 -0.5419,22.94936 -5.5116,32.38479 -3.1823,7.60286 -5.0371,28.63747 -7.1486,35.8886 -3.036,6.72908 -9.3298,21.9427 -15.4452,27.46505 -5.2695,11.57134 -16.78,17.44478 -22.3631,22.13606 -10.1526,6.5952 -11.9664,15.55871 -23.2239,20.15012 -11.4406,6.35215 -17.6083,11.22779 -27.6494,12.285 -12.1035,5.66127 -21.7504,10.88527 -29.7028,11.18082 -12.4365,-0.0836 -21.0321,7.15392 -31.5219,4.14137 -7.9727,0.22218 -26.1177,9.72086 -28.5252,-2.59895 -5.073,-25.9592 -25.6823,-11.27022 -32.1988,-14.99611 -6.3594,-3.63606 -20.6009,-1.04034 -26.9687,-9.0148 -11.481,-6.06734 -13.0012,-15.3858 -21.5587,-25.38852 -4.4708,-5.95803 4.2364,-15.3434 1.2566,-25.18548 -8.2521,-6.87657 -33.8786,-10.53007 -39.4797,-22.75408 -6.7431,-10.96241 -1.8977,-16.00591 -3.4115,-29.46177 -2.6909,-13.4632 53.0039,-7.28348 51.0339,-20.698 1.0672,-13.95448 -58.2719,-29.187308 -55.7251,-42.674891 5.1329,-10.179378 9.9084,-28.286304 12.0727,-35.494797 2.0911,-7.268184 3.1117,-12.339916 11.5062,-22.322264 2.8416,-9.48643 5.616,-29.799149 10.8071,-34.788784 8.6795,-9.937364 31.9864,-4.865131 37.4302,-10.648586 5.6606,-4.641648 34.4847,4.754807 43.2289,3.639756 8.2312,-6.828965 4.2608,-23.229026 13.6722,-28.26963 12.6722,-0.167216 18.4641,-2.700842 27.9614,-0.044 8.4547,1.666478 9.3916,10.132661 21.634,14.667743 7.3487,2.400082 32.614,-6.864067 44.4754,-4.735577 11.3408,6.508468 -1.0157,66.932009 5.794,70.154845 5.7837,7.183498 34.6129,-42.381016 38.7997,-35.3572008 10.0875,6.35267862 19.7169,10.8513483 22.5307,20.2453848 7.0634,11.2889 9.2755,25.73284 15.5114,33.259375 3.8236,12.662537 0.5923,17.708598 5.3644,26.700805 -0.5968,11.806256 11.8879,19.917267 9.175,32.365831 3.0165,-0.23431 -5.6145,0.55076 -4.3348,3.31872"
         id="path3418"
         inkscape:connector-curvature="0"
         sodipodi:nodetypes="sssssssssssssssssssssssssssssssssc" />
    </g>
    <g
       inkscape:export-ydpi="90"
       inkscape:export-xdpi="90"
       transform="matrix(0.49997332,0,0,0.49997332,-693.5396,18.030778)"
       id="g3420"
       style="stroke-width:10.00053363;stroke-miterlimit:4;stroke-dasharray:none">
      <rect
         inkscape:export-ydpi="90"
         inkscape:export-xdpi="90"
         style="opacity:1;fill:none;fill-opacity:0.4107143;fill-rule:evenodd;stroke:none;stroke-width:10.00053363;stroke-linecap:square;stroke-linejoin:miter;stroke-miterlimit:4;stroke-dasharray:none;stroke-opacity:1"
         id="rect3422"
         width="350"
         height="350"
         x="1226.1123"
         y="298.31183" />
      <path
         sodipodi:nodetypes="sssssssssssssssssssssssssssssssssc"
         inkscape:connector-curvature="0"
         id="path3424"
         d="m 1560.0942,471.94561 c -1.72,8.27731 -5.9967,19.05134 -5.3369,30.27687 -1.4162,12.94244 -5.357,22.67968 -7.6886,29.49161 -3.1022,12.07032 -10.1779,19.25607 -18.8497,27.59337 -8.0789,9.99478 -5.8209,15.0599 -15.85,21.26599 -4.8204,5.14033 -14.0536,14.13598 -25.3957,19.13443 -10.5632,7.60092 -18.1296,12.52803 -27.137,19.35622 -9.5526,0.97684 -15.6095,5.0254 -27.6132,9.49309 -10.8867,4.94298 -21.5338,-0.79314 -35.1629,0.42401 -10.2137,-2.86475 -0.9802,-25.48707 -13.8342,-29.05431 -12.6359,-0.24566 -37.9391,25.44691 -45.1289,19.58707 -12.1384,-5.20871 -17.5953,-17.18918 -27.0864,-20.01355 -9.559,-2.85138 -17.027,-3.59086 -22.6332,-13.12271 -9.4061,-8.934 -13.7087,-16.19194 -16.4101,-24.8284 -7.1977,-10.77067 -9.7554,-20.30457 -14.434,-26.70106 -4.8451,-6.43974 -4.7599,-21.75839 -9.8529,-31.59947 -1.8176,-13.0072 -0.45,-19.3666 -2.7234,-28.13479 -2.3421,-8.84936 11.2762,-10.77696 14.0969,-23.71199 2.868,-7.23335 8.7057,-17.72671 12.296,-24.07233 1.0011,-9.05786 4.6804,-16.38323 12.9725,-26.05532 6.9665,-5.58138 -6.7047,-34.32917 2.6652,-39.36336 4.1712,-7.41606 11.0184,-11.84885 22.3523,-18.01812 11.2951,-6.3286 20.9132,-6.64903 32.2563,-12.84286 6.9777,-2.24049 19.1116,-7.31124 28.6046,-6.53332 8.8354,-4.64312 19.2619,-5.06201 32.1504,-7.26311 13.5036,-1.45798 19.2338,-2.52465 30.5807,2.28609 7.2771,2.13918 8.0196,29.47695 18.1239,36.26393 9.6586,6.85174 21.4351,10.00613 27.5024,13.71792 10.6831,7.47092 13.8861,13.18512 22.285,22.8607 10.078,6.40179 30.1606,-12.19147 33.1014,-5.16887 7.0002,5.59745 1.9818,15.82897 8.9743,24.99657 6.7438,10.43744 13.1792,19.54983 14.1551,32.35488 4.7125,8.62703 0.5189,19.23293 -1.8859,28.16182 1.8044,2.3506 1.2079,4.28411 -0.2391,1.70674"
         style="opacity:1;fill:#000000;fill-opacity:1;fill-rule:evenodd;stroke:#ffffff;stroke-width:20.00106726;stroke-linecap:square;stroke-linejoin:miter;stroke-miterlimit:4;stroke-dasharray:none;stroke-opacity:1" />
    </g>
  </g>
</svg>
